<?xml version="1.0" encoding="UTF-8" standalone="no"?>
<!-- Created with Inkscape (http://www.inkscape.org/) -->

<svg
   width="512"
   height="511.99997"
   viewBox="0 0 135.46667 135.46666"
   version="1.1"
   id="svg53047"
   xml:space="preserve"
   xmlns:xlink="http://www.w3.org/1999/xlink"
   xmlns="http://www.w3.org/2000/svg"
   xmlns:svg="http://www.w3.org/2000/svg"><defs
     id="defs53044"><linearGradient
       id="linearGradient42163"><stop
         style="stop-color:#000000;stop-opacity:0;"
         offset="0"
         id="stop42159" /><stop
         style="stop-color:#000000;stop-opacity:0;"
         offset="0.5"
         id="stop44409" /><stop
         style="stop-color:#000000;stop-opacity:0.43523315;"
         offset="0.75"
         id="stop44411" /><stop
         style="stop-color:#000000;stop-opacity:1;"
         offset="1"
         id="stop42161" /></linearGradient><linearGradient
       id="linearGradient41425"><stop
         style="stop-color:#000000;stop-opacity:0;"
         offset="0"
         id="stop41421" /><stop
         style="stop-color:#000000;stop-opacity:1;"
         offset="1"
         id="stop41423" /></linearGradient><linearGradient
       id="linearGradient41411"><stop
         style="stop-color:#77959e;stop-opacity:1;"
         offset="0"
         id="stop41407" /><stop
         style="stop-color:#637b85;stop-opacity:1;"
         offset="1"
         id="stop41409" /></linearGradient><linearGradient
       id="linearGradient41403"><stop
         style="stop-color:#62808c;stop-opacity:1;"
         offset="0"
         id="stop41399" /><stop
         style="stop-color:#4f6973;stop-opacity:1;"
         offset="1"
         id="stop41401" /></linearGradient><linearGradient
       id="linearGradient41395"><stop
         style="stop-color:#ceed5f;stop-opacity:1;"
         offset="0"
         id="stop41391" /><stop
         style="stop-color:#a3bd4a;stop-opacity:1;"
         offset="1"
         id="stop41393" /></linearGradient><linearGradient
       id="linearGradient41387"><stop
         style="stop-color:#badb31;stop-opacity:1;"
         offset="0"
         id="stop41383" /><stop
         style="stop-color:#9ebd23;stop-opacity:1;"
         offset="1"
         id="stop41385" /></linearGradient><linearGradient
       id="linearGradient41379"><stop
         style="stop-color:#48c8ef;stop-opacity:1;"
         offset="0"
         id="stop41375" /><stop
         style="stop-color:#10b8e5;stop-opacity:1;"
         offset="1"
         id="stop41377" /></linearGradient><linearGradient
       id="linearGradient37824"><stop
         style="stop-color:#e0985c;stop-opacity:1;"
         offset="0"
         id="stop37820" /><stop
         style="stop-color:#da853e;stop-opacity:1;"
         offset="1"
         id="stop37822" /></linearGradient><filter
       style="color-interpolation-filters:sRGB"
       id="filter24314"
       x="-0.03836685"
       y="-0.038366623"
       width="1.0767337"
       height="1.0767332"><feGaussianBlur
         stdDeviation="1.0631264"
         id="feGaussianBlur24316" /></filter><filter
       style="color-interpolation-filters:sRGB"
       id="filter37273"
       x="-0.10421911"
       y="-0.10421911"
       width="1.2084382"
       height="1.2084382"><feGaussianBlur
         stdDeviation="1.2734121"
         id="feGaussianBlur37275" /></filter><linearGradient
       xlink:href="#linearGradient37824"
       id="linearGradient37826"
       x1="37.26667"
       y1="83.853897"
       x2="132.90195"
       y2="179.48918"
       gradientUnits="userSpaceOnUse" /><linearGradient
       xlink:href="#linearGradient41379"
       id="linearGradient41381"
       x1="44.015114"
       y1="58.858215"
       x2="89.715431"
       y2="104.55853"
       gradientUnits="userSpaceOnUse" /><linearGradient
       xlink:href="#linearGradient41387"
       id="linearGradient41389"
       x1="47.727806"
       y1="84.686356"
       x2="97.997078"
       y2="134.95563"
       gradientUnits="userSpaceOnUse" /><linearGradient
       xlink:href="#linearGradient41395"
       id="linearGradient41397"
       x1="61.873978"
       y1="87.479233"
       x2="97.997078"
       y2="123.60233"
       gradientUnits="userSpaceOnUse" /><linearGradient
       xlink:href="#linearGradient41403"
       id="linearGradient41405"
       x1="39.776104"
       y1="54.689716"
       x2="97.997078"
       y2="112.91069"
       gradientUnits="userSpaceOnUse" /><linearGradient
       xlink:href="#linearGradient41411"
       id="linearGradient41413"
       x1="57.612888"
       y1="72.451279"
       x2="89.715431"
       y2="104.55853"
       gradientUnits="userSpaceOnUse" /><filter
       style="color-interpolation-filters:sRGB"
       id="filter41417"
       x="-0.088811889"
       y="-0.063437067"
       width="1.1776237"
       height="1.1268741"><feGaussianBlur
         stdDeviation="2.1077808"
         id="feGaussianBlur41419" /></filter><linearGradient
       xlink:href="#linearGradient41425"
       id="linearGradient41427"
       x1="-59.12434"
       y1="106.7757"
       x2="-58.884346"
       y2="196.73409"
       gradientUnits="userSpaceOnUse" /><filter
       style="color-interpolation-filters:sRGB"
       id="filter42155"
       x="-0.078697763"
       y="-0.20541407"
       width="1.1573955"
       height="1.4108281"><feGaussianBlur
         stdDeviation="1.1234178"
         id="feGaussianBlur42157" /></filter><linearGradient
       xlink:href="#linearGradient42163"
       id="linearGradient42165"
       x1="-61.133476"
       y1="89.794922"
       x2="-61.133476"
       y2="108.31302"
       gradientUnits="userSpaceOnUse" /></defs><g
     id="layer3"><g
       id="g17479"
       transform="matrix(1.2117393,0,0,1.2117393,-36.618786,-96.043925)"
       style="display:inline"><rect
         style="display:inline;opacity:1;fill:url(#linearGradient37826);fill-opacity:1;fill-rule:nonzero;stroke:none;stroke-width:2.55831;stroke-dasharray:none;stroke-dashoffset:0"
         id="rect17451"
         width="72.532249"
         height="94.938164"
         x="37.26667"
         y="83.853897"
         ry="7.1801291" /><g
         id="paper2"
         transform="translate(132.41714,-17.942039)"><rect
           style="display:inline;opacity:0.400662;mix-blend-mode:normal;fill:url(#linearGradient41427);fill-opacity:1;stroke:none;stroke-width:2.07777;stroke-dasharray:none;stroke-dashoffset:0;filter:url(#filter41417)"
           id="rect17453"
           width="56.959419"
           height="79.743187"
           x="-87.364052"
           y="111.83438"
           ry="0" /><rect
           style="display:inline;opacity:1;fill:#ffffff;fill-opacity:1;stroke:none;stroke-width:2.07777;stroke-dasharray:none;stroke-dashoffset:0"
           id="rect17455"
           width="56.959419"
           height="79.743187"
           x="-87.364052"
           y="108.76419"
           ry="0" /></g><g
         id="clip2"
         transform="translate(132.41714,-10.533708)"
         style="display:inline"><path
           id="path17459"
           style="display:inline;opacity:1;fill:url(#linearGradient42165);fill-opacity:1;stroke:none;stroke-width:2.64583;filter:url(#filter42155)"
           d="m -76.01445,92.491123 h 34.260223 v 8.721037 a 4.404661,4.404661 135 0 1 -4.404661,4.40466 l -25.450901,0 a 4.404661,4.404661 45 0 1 -4.404661,-4.40466 z" /><path
           id="path17461"
           style="display:inline;opacity:1;fill:#4f5d73;fill-opacity:1;stroke:none;stroke-width:2.64583"
           d="m -76.01445,91.300377 h 34.260223 v 8.721013 a 4.404661,4.404661 135 0 1 -4.404661,4.40466 l -25.450901,0 a 4.404661,4.404661 45 0 1 -4.404661,-4.40466 z" /></g><g
         id="lines2"
         transform="translate(132.41714,-17.942039)"
         style="display:inline"><rect
           style="fill:#e0e0d1;fill-opacity:1;stroke-width:0.264583"
           id="rect17465"
           width="34.510296"
           height="4.6635537"
           x="-76.139488"
           y="123.11723" /><rect
           style="fill:#e0e0d1;fill-opacity:1;stroke-width:0.264583"
           id="rect17467"
           width="34.510296"
           height="4.6635537"
           x="-76.139488"
           y="132.21878" /><rect
           style="fill:#e0e0d1;fill-opacity:1;stroke-width:0.264583"
           id="rect17469"
           width="34.510296"
           height="4.6635537"
           x="-76.139488"
           y="141.32034" /><rect
           style="fill:#e0e0d1;fill-opacity:1;stroke-width:0.264583"
           id="rect17471"
           width="34.510296"
           height="4.6635537"
           x="-76.139488"
           y="150.42189" /><rect
           style="fill:#e0e0d1;fill-opacity:1;stroke-width:0.264583"
           id="rect17473"
           width="34.510296"
           height="4.6635537"
           x="-76.139488"
           y="159.52345" /><rect
           style="fill:#e0e0d1;fill-opacity:1;stroke-width:0.264583"
           id="rect17475"
           width="34.510296"
           height="4.6635537"
           x="-76.139488"
           y="168.625" /></g></g><g
       id="layer5"><g
         id="g17441"
         style="display:inline"
         transform="matrix(1.3392955,0,0,1.3392955,4.2196234,-15.743259)"><path
           id="rect17429"
           style="display:inline;opacity:0.443709;fill:#000000;fill-opacity:1;stroke-width:0.129888;filter:url(#filter24314)"
           d="m 85.506409,46.399776 v 8.289941 h -41.52109 v -0.0081 h -4.209214 v 0.0081 4.168315 41.586298 h -3.99777 a 4.2267545,4.2267545 0 0 0 -4.284069,4.16831 h 8.281839 v 4.00588 a 4.2466864,4.2466864 0 0 0 4.209214,4.28407 v -8.28995 h 41.52109 v 0.008 h 4.208828 v -0.008 h 3.86e-4 v -3.9e-4 -4.16831 -13.292459 -28.293839 h 3.997384 a 4.2267481,4.2267481 0 0 0 4.284069,-4.168315 h -8.281453 -3.86e-4 v -4.005872 a 4.2466888,4.2466888 0 0 0 -4.208828,-4.284069 z" /></g><g
         id="g24303"
         style="display:inline"
         transform="matrix(1.3392955,0,0,1.3392955,4.2196234,-15.743259)"><rect
           style="display:inline;opacity:1;fill:url(#linearGradient41381);fill-opacity:1;stroke-width:0.129888"
           id="rect24291"
           width="49.939194"
           height="49.868927"
           x="39.776237"
           y="54.689598" /><path
           id="path24293"
           style="display:inline;opacity:1;fill:url(#linearGradient41389);fill-opacity:1;stroke-width:0.352466"
           d="m 56.405742,76.734801 -16.62949,16.45952 v 11.418489 h 44.431885 z" /><path
           id="path24295"
           style="display:inline;opacity:1;fill:url(#linearGradient41397);fill-opacity:1;stroke-width:0.352466"
           d="M 75.055084,72.451281 46.846022,104.61281 h 42.869424 l -3e-6,-17.461079 z" /><rect
           style="opacity:1;fill:#ffffff;fill-opacity:1;stroke-width:0.128741"
           id="rect24297"
           width="4.1558056"
           height="4.1558056"
           x="50.198685"
           y="65.137817" /><path
           id="path24299"
           style="display:inline;opacity:1;fill:url(#linearGradient41405);fill-opacity:1;stroke-width:0.180298"
           d="m 39.776253,54.681499 v 0.0081 h -2.5e-4 v 4.168596 h 2.5e-4 v 49.760275 a 4.2466864,4.2466864 45.507166 0 0 4.20893,4.28411 V 58.858216 h 49.727785 a 4.2267481,4.2267481 135.78294 0 0 4.28411,-4.168597 H 43.985183 v -0.0081 z" /><path
           id="path24301"
           style="display:inline;opacity:1;fill:url(#linearGradient41413);fill-opacity:1;stroke-width:0.180298"
           d="m 89.715191,104.62092 v -0.008 h 2.5e-4 v -4.1686 h -2.5e-4 V 50.683954 a 4.2466888,4.2466888 45.507132 0 0 -4.208935,-4.28411 V 100.4442 H 35.778469 a 4.2267545,4.2267545 135.78285 0 0 -4.28411,4.16861 h 54.011897 v 0.008 z" /></g></g><g
       id="layer4"
       style="display:inline"
       transform="translate(37.254609,-44.08856)"><path
         d="m 58.168947,96.352351 2.584234,-2.584235 -10.226972,-10.2453 H 72.831272 V 79.857235 H 50.526209 L 60.753181,69.611935 58.168947,67.0277 43.506621,81.690026 Z"
         id="path33738"
         style="opacity:0.284768;mix-blend-mode:normal;fill:#000000;fill-opacity:1;stroke-width:1.83279;filter:url(#filter37273)" /><path
         d="m 58.168947,96.352351 2.584234,-2.584235 -10.226972,-10.2453 H 72.831272 V 79.857235 H 50.526209 L 60.753181,69.611935 58.168947,67.0277 43.506621,81.690026 Z"
         id="path37271"
         style="opacity:1;fill:#31c1eb;fill-opacity:1;stroke-width:1.83279" /></g></g></svg>
